<svg height='100px' width='100px'  fill="#8aa399" xmlns="http://www.w3.org/2000/svg" viewBox="0 0 64 64" x="0px" y="0px"><g><rect x="21" y="6" width="2" height="2"></rect><rect x="25" y="6" width="6" height="2"></rect><rect x="27" y="56" width="2" height="2"></rect><path d="M54.5,18.42a3.007,3.007,0,0,0-4.1,1.1L48,23.68V8a6,6,0,0,0-6-6H14A6,6,0,0,0,8,8V56a6,6,0,0,0,6,6H42a6,6,0,0,0,6-6V35.68l7.6-13.16A3.016,3.016,0,0,0,54.5,18.42ZM10,8a4,4,0,0,1,4-4H42a4,4,0,0,1,4,4v2H10ZM46,56a4,4,0,0,1-4,4H14a4,4,0,0,1-4-4V54H46Zm0-4H10V12H46V27.14l-8.6,14.9a.942.942,0,0,0-.13.44L37,46.94a1,1,0,0,0,1.55.89l3.73-2.46a1.009,1.009,0,0,0,.32-.33l3.4-5.9Zm-5.02-8.17-1.86,1.23.13-2.23L50.63,23.12l1.74,1ZM53.87,21.52l-.5.86-1.74-1,.5-.86a1,1,0,0,1,1.74,1Z"></path><path d="M15,28h3.08A7,7,0,1,0,26,20.08V17a1,1,0,0,0-1-1H15a1,1,0,0,0-1,1V27A1,1,0,0,0,15,28Zm15-1a5,5,0,0,1-9.9,1H25a1,1,0,0,0,1-1V22.1A5.009,5.009,0,0,1,30,27Zm-9.9-1A5.016,5.016,0,0,1,24,22.1V26ZM16,18h8v2.08A7,7,0,0,0,18.08,26H16Z"></path><path d="M21,44.5A1.5,1.5,0,0,1,22.5,43h6a3.5,3.5,0,0,0,0-7H14v2H28.5a1.5,1.5,0,0,1,0,3h-6a3.5,3.5,0,0,0,0,7H35V46H22.5A1.5,1.5,0,0,1,21,44.5Z"></path><rect x="34" y="26" width="2" height="2"></rect><rect x="38" y="26" width="2" height="2"></rect><rect x="34" y="22" width="2" height="2"></rect><rect x="38" y="22" width="2" height="2"></rect></g></svg>