<?xml version="1.0" encoding="UTF-8"?>
<svg width="285px" height="135px" viewBox="0 0 285 135" version="1.1" xmlns="http://www.w3.org/2000/svg" xmlns:xlink="http://www.w3.org/1999/xlink">
    <title>hr-rookies</title>
    <defs>
        <polygon id="path-1" points="0 78.1638 96.864 78.1638 96.864 -0.0002 0 -0.0002"></polygon>
    </defs>
    <g id="Desktop" stroke="none" stroke-width="1" fill="none" fill-rule="evenodd">
        <g id="About-us" transform="translate(-150.000000, -3932.000000)">
            <g id="hr-rookies" transform="translate(150.000000, 3932.189726)">
                <rect id="Rectangle-Copy-4" x="0" y="-4.54747351e-13" width="285" height="133.019838"></rect>
                <g id="HR-rookies" transform="translate(94.000000, 27.009919)">
                    <path d="M39.159,16.8379 L41.972,16.8379 C44.188,16.8379 45.297,15.5759 45.297,13.0539 C45.297,10.6749 44.116,9.4839 41.755,9.4839 L39.159,9.4839 L39.159,16.8379 Z M47.567,7.0689 C48.721,8.3189 49.298,10.1089 49.298,12.4419 C49.298,14.0029 48.982,15.3359 48.351,16.4419 C47.721,17.5469 46.864,18.3049 45.783,18.7119 L45.783,18.7839 C46.468,19.1209 47.009,19.6319 47.405,20.3169 C47.802,21.0009 48.224,22.1499 48.676,23.7599 L50.595,30.8589 L46.269,30.8589 L44.728,24.7689 C44.368,23.3739 43.949,22.4069 43.471,21.8659 C42.994,21.3249 42.286,21.0559 41.349,21.0559 L39.159,21.0559 L39.159,30.8589 L35.185,30.8589 L35.185,5.1949 L42.268,5.1949 C44.647,5.1949 46.414,5.8199 47.567,7.0689 L47.567,7.0689 Z" id="Fill-1" fill="#1F191A"></path>
                    <path d="M57.0965,11.6289 C56.2045,13.1799 55.7585,15.3129 55.7585,18.0269 C55.7585,20.7429 56.2045,22.8749 57.0965,24.4269 C57.9895,25.9769 59.2095,26.7499 60.7605,26.7499 C62.3105,26.7499 63.5315,25.9769 64.4235,24.4269 C65.3155,22.8749 65.7615,20.7429 65.7615,18.0269 C65.7615,15.3129 65.3155,13.1799 64.4235,11.6289 C63.5315,10.0789 62.3105,9.3049 60.7605,9.3049 C59.2095,9.3049 57.9895,10.0789 57.0965,11.6289 M65.6265,6.2399 C66.9955,7.3209 68.0455,8.8659 68.7765,10.8719 C69.5055,12.8789 69.8705,15.2649 69.8705,18.0269 C69.8705,20.7909 69.5055,23.1769 68.7765,25.1839 C68.0455,27.1909 66.9955,28.7329 65.6265,29.8159 C64.2565,30.8969 62.6345,31.4379 60.7605,31.4379 C58.8855,31.4379 57.2635,30.8969 55.8945,29.8159 C54.5245,28.7329 53.4745,27.1909 52.7435,25.1839 C52.0145,23.1769 51.6495,20.7909 51.6495,18.0269 C51.6495,15.2649 52.0145,12.8789 52.7435,10.8719 C53.4745,8.8659 54.5245,7.3209 55.8945,6.2399 C57.2635,5.1589 58.8855,4.6179 60.7605,4.6179 C62.6345,4.6179 64.2565,5.1589 65.6265,6.2399" id="Fill-3" fill="#1F191A"></path>
                    <path d="M77.8583,11.6289 C76.9663,13.1799 76.5203,15.3129 76.5203,18.0269 C76.5203,20.7429 76.9663,22.8749 77.8583,24.4269 C78.7513,25.9769 79.9713,26.7499 81.5223,26.7499 C83.0723,26.7499 84.2933,25.9769 85.1853,24.4269 C86.0773,22.8749 86.5233,20.7429 86.5233,18.0269 C86.5233,15.3129 86.0773,13.1799 85.1853,11.6289 C84.2933,10.0789 83.0723,9.3049 81.5223,9.3049 C79.9713,9.3049 78.7513,10.0789 77.8583,11.6289 M86.3883,6.2399 C87.7573,7.3209 88.8073,8.8659 89.5383,10.8719 C90.2673,12.8789 90.6323,15.2649 90.6323,18.0269 C90.6323,20.7909 90.2673,23.1769 89.5383,25.1839 C88.8073,27.1909 87.7573,28.7329 86.3883,29.8159 C85.0183,30.8969 83.3963,31.4379 81.5223,31.4379 C79.6473,31.4379 78.0253,30.8969 76.6563,29.8159 C75.2863,28.7329 74.2363,27.1909 73.5053,25.1839 C72.7763,23.1769 72.4113,20.7909 72.4113,18.0269 C72.4113,15.2649 72.7763,12.8789 73.5053,10.8719 C74.2363,8.8659 75.2863,7.3209 76.6563,6.2399 C78.0253,5.1589 79.6473,4.6179 81.5223,4.6179 C83.3963,4.6179 85.0183,5.1589 86.3883,6.2399" id="Fill-5" fill="#1F191A"></path>
                    <polygon id="Fill-7" fill="#1F191A" points="50.784 59.6963 45.728 59.6963 39.214 47.5863 39.159 47.5863 39.159 59.6963 35.185 59.6963 35.185 34.0333 39.159 34.0333 39.159 45.3143 39.214 45.3143 45.513 34.0333 50.163 34.0333 42.836 46.2173"></polygon>
                    <mask id="mask-2" fill="white">
                        <use xlink:href="#path-1"></use>
                    </mask>
                    <g id="Clip-10"></g>
                    <polygon id="Fill-9" fill="#1F191A" mask="url(#mask-2)" points="52.568 59.6968 56.542 59.6968 56.542 34.0328 52.568 34.0328"></polygon>
                    <polygon id="Fill-11" fill="#1F191A" mask="url(#mask-2)" points="64.9501 38.5732 64.9501 44.3782 73.6551 44.3782 73.6551 48.8842 64.9501 48.8842 64.9501 55.1542 74.5201 55.1542 74.5201 59.6962 60.9761 59.6962 60.9761 34.0332 74.2771 34.0332 74.2771 38.5732"></polygon>
                    <path d="M89.2948,35.5996 C90.5288,37.0316 91.1468,39.1266 91.1468,41.8896 L87.1178,41.8896 C87.1178,40.5436 86.8298,39.5046 86.2528,38.7726 C85.6768,38.0386 84.8478,37.6726 83.7668,37.6726 C82.8828,37.6726 82.1708,37.9306 81.6308,38.4486 C81.0898,38.9646 80.8188,39.6436 80.8188,40.4856 C80.8188,41.1326 80.9548,41.6616 81.2248,42.0716 C81.4948,42.4796 81.9188,42.8326 82.4948,43.1336 C83.0718,43.4346 83.9098,43.7646 85.0098,44.1246 C86.5058,44.6286 87.7128,45.1406 88.6328,45.6576 C89.5518,46.1736 90.3038,46.9496 90.8898,47.9826 C91.4758,49.0146 91.7688,50.4106 91.7688,52.1626 C91.7688,53.7746 91.4528,55.1916 90.8218,56.4156 C90.1908,57.6416 89.3088,58.5916 88.1728,59.2636 C87.0368,59.9366 85.7308,60.2746 84.2528,60.2746 C81.8188,60.2746 79.9138,59.4936 78.5348,57.9306 C77.1558,56.3696 76.4668,54.1466 76.4668,51.2616 L80.5758,51.2616 C80.5758,52.8256 80.8918,54.0006 81.5228,54.7936 C82.1528,55.5866 83.0808,55.9846 84.3068,55.9846 C85.3158,55.9846 86.1218,55.6906 86.7268,55.1006 C87.3298,54.5116 87.6318,53.7126 87.6318,52.7036 C87.6318,51.9836 87.4968,51.4126 87.2268,50.9926 C86.9558,50.5726 86.5678,50.2416 86.0648,49.9996 C85.5598,49.7596 84.7568,49.4486 83.6578,49.0646 C82.0898,48.5366 80.8468,48.0176 79.9278,47.5126 C79.0078,47.0086 78.2458,46.2456 77.6428,45.2236 C77.0388,44.2036 76.7368,42.8166 76.7368,41.0616 C76.7368,39.5726 77.0338,38.2486 77.6298,37.0956 C78.2248,35.9436 79.0628,35.0466 80.1438,34.4116 C81.2248,33.7746 82.4588,33.4546 83.8478,33.4546 C86.2438,33.4546 88.0598,34.1696 89.2948,35.5996" id="Fill-12" fill="#1F191A" mask="url(#mask-2)"></path>
                    <polygon id="Fill-13" fill="#1F191A" mask="url(#mask-2)" points="15.8246 59.8847 15.8246 31.2397 6.6776 31.2397 6.6776 59.8847 5.8996 59.8847 5.8996 -0.0003 6.6776 -0.0003 6.6776 28.2957 15.8246 28.2957 15.8246 -0.0003 16.6236 -0.0003 16.6236 59.8847"></polygon>
                    <path d="M21.7538,28.2246 L25.2868,28.2246 C26.6038,28.2246 27.5918,27.9236 28.2518,25.4016 C28.9098,22.8766 29.2398,19.5706 29.2398,15.4756 C29.2398,11.4396 28.8888,8.3416 28.1878,6.1826 C27.4868,4.0256 26.4498,2.9456 25.0758,2.9456 L21.7538,2.9456 L21.7538,28.2246 Z M28.7978,4.0376 C29.6248,6.7296 30.0388,10.5426 30.0388,15.4756 C30.0388,19.5706 29.7578,22.9616 29.1978,25.6546 C28.6368,28.3446 27.8868,29.0666 26.9478,29.7396 L26.9478,29.9076 C27.5078,30.4676 27.9528,32.4956 28.2828,34.0646 C28.6118,35.6336 28.9448,38.2976 29.2818,42.0536 L30.9008,59.8846 L30.0388,59.8846 L28.5038,42.6426 C28.2648,39.9526 28.0168,37.8646 27.7568,36.3766 C27.4978,34.8916 27.1748,33.8116 26.7898,33.1386 C26.4038,32.4656 25.9028,31.1676 25.2868,31.1676 L21.7538,31.1676 L21.7538,59.8846 L20.9758,59.8846 L20.9758,-0.0004 L25.0758,-0.0004 C26.7298,-0.0004 27.9708,1.3456 28.7978,4.0376 L28.7978,4.0376 Z" id="Fill-14" fill="#1F191A" mask="url(#mask-2)"></path>
                    <polygon id="Fill-15" fill="#FF0096" mask="url(#mask-2)" points="0 78.1638 96.864 78.1638 96.864 68.0588 0 68.0588"></polygon>
                    <path d="M12.1708,74.8721 C11.6958,75.1421 11.1688,75.2741 10.5888,75.2741 C9.9148,75.2741 9.3688,75.0581 8.9528,74.6221 C8.5358,74.1861 8.3278,73.6111 8.3278,72.8941 C8.3278,72.1631 8.5598,71.5621 9.0228,71.0951 C9.4838,70.6251 10.0698,70.3911 10.7798,70.3911 C11.2948,70.3911 11.7268,70.4751 12.0758,70.6421 L12.0758,71.2551 C11.6928,71.0131 11.2408,70.8921 10.7178,70.8921 C10.1888,70.8921 9.7538,71.0731 9.4158,71.4371 C9.0768,71.8041 8.9078,72.2751 8.9078,72.8551 C8.9078,73.4531 9.0658,73.9241 9.3798,74.2661 C9.6938,74.6051 10.1198,74.7761 10.6578,74.7761 C11.0268,74.7761 11.3478,74.7031 11.6178,74.5571 L11.6178,73.2301 L10.5828,73.2301 L10.5828,72.7301 L12.1708,72.7301 L12.1708,74.8721 Z" id="Fill-16" fill="#FFFFFF" mask="url(#mask-2)"></path>
                    <polygon id="Fill-17" fill="#FFFFFF" mask="url(#mask-2)" points="14.8373 75.1953 13.0833 75.1953 13.0833 71.8863 14.7633 71.8863 14.7633 72.2373 13.4713 72.2373 13.4713 73.3393 14.6663 73.3393 14.6663 73.6863 13.4713 73.6863 13.4713 74.8443 14.8373 74.8443"></polygon>
                    <path d="M15.3187,75.0615 L15.3187,74.6055 C15.3707,74.6515 15.4337,74.6935 15.5057,74.7305 C15.5797,74.7665 15.6567,74.7965 15.7377,74.8235 C15.8177,74.8475 15.8987,74.8695 15.9807,74.8815 C16.0617,74.8965 16.1377,74.9035 16.2067,74.9035 C16.4457,74.9035 16.6237,74.8595 16.7407,74.7705 C16.8587,74.6815 16.9177,74.5535 16.9177,74.3875 C16.9177,74.2985 16.8977,74.2205 16.8587,74.1565 C16.8197,74.0885 16.7647,74.0295 16.6957,73.9735 C16.6267,73.9185 16.5457,73.8685 16.4507,73.8175 C16.3557,73.7665 16.2537,73.7135 16.1447,73.6605 C16.0297,73.6005 15.9217,73.5405 15.8217,73.4825 C15.7207,73.4205 15.6347,73.3565 15.5607,73.2835 C15.4867,73.2095 15.4287,73.1285 15.3867,73.0385 C15.3437,72.9465 15.3237,72.8375 15.3237,72.7145 C15.3237,72.5655 15.3557,72.4335 15.4227,72.3235 C15.4887,72.2095 15.5757,72.1195 15.6827,72.0455 C15.7907,71.9735 15.9137,71.9195 16.0507,71.8845 C16.1887,71.8495 16.3297,71.8325 16.4717,71.8325 C16.7977,71.8325 17.0357,71.8725 17.1847,71.9505 L17.1847,72.3845 C16.9897,72.2495 16.7387,72.1825 16.4327,72.1825 C16.3477,72.1825 16.2637,72.1925 16.1787,72.2085 C16.0937,72.2265 16.0187,72.2545 15.9537,72.2945 C15.8867,72.3345 15.8337,72.3865 15.7917,72.4515 C15.7507,72.5125 15.7287,72.5895 15.7287,72.6805 C15.7287,72.7655 15.7457,72.8375 15.7767,72.9005 C15.8077,72.9605 15.8547,73.0175 15.9167,73.0695 C15.9777,73.1205 16.0527,73.1675 16.1407,73.2155 C16.2297,73.2635 16.3317,73.3165 16.4467,73.3745 C16.5647,73.4305 16.6767,73.4935 16.7837,73.5575 C16.8897,73.6235 16.9827,73.6945 17.0627,73.7725 C17.1427,73.8505 17.2067,73.9385 17.2537,74.0335 C17.2997,74.1275 17.3237,74.2385 17.3237,74.3615 C17.3237,74.5245 17.2917,74.6625 17.2277,74.7755 C17.1637,74.8875 17.0777,74.9805 16.9687,75.0495 C16.8607,75.1225 16.7357,75.1715 16.5937,75.2045 C16.4527,75.2365 16.3037,75.2505 16.1467,75.2505 C16.0937,75.2505 16.0297,75.2475 15.9537,75.2395 C15.8767,75.2305 15.7977,75.2165 15.7177,75.2025 C15.6377,75.1845 15.5617,75.1655 15.4907,75.1405 C15.4197,75.1185 15.3617,75.0905 15.3187,75.0615" id="Fill-18" fill="#FFFFFF" mask="url(#mask-2)"></path>
                    <polygon id="Fill-19" fill="#FFFFFF" mask="url(#mask-2)" points="19.9408 72.2373 18.9848 72.2373 18.9848 75.1953 18.5978 75.1953 18.5978 72.2373 17.6448 72.2373 17.6448 71.8863 19.9408 71.8863"></polygon>
                    <path d="M21.7582,73.9209 L21.2382,72.5109 C21.2222,72.4649 21.2052,72.3909 21.1892,72.2879 L21.1792,72.2879 C21.1632,72.3829 21.1462,72.4559 21.1262,72.5109 L20.6122,73.9209 L21.7582,73.9209 Z M22.6652,75.1949 L22.2362,75.1949 L21.8852,74.2689 L20.4832,74.2689 L20.1532,75.1949 L19.7212,75.1949 L20.9892,71.8879 L21.3912,71.8879 L22.6652,75.1949 Z" id="Fill-20" fill="#FFFFFF" mask="url(#mask-2)"></path>
                    <polygon id="Fill-21" fill="#FFFFFF" mask="url(#mask-2)" points="24.8685 75.1953 23.1515 75.1953 23.1515 71.8863 23.5395 71.8863 23.5395 74.8443 24.8685 74.8443"></polygon>
                    <polygon id="Fill-22" fill="#FFFFFF" mask="url(#mask-2)" points="27.0716 72.2373 26.1156 72.2373 26.1156 75.1953 25.7286 75.1953 25.7286 72.2373 24.7756 72.2373 24.7756 71.8863 27.0716 71.8863"></polygon>
                    <polygon id="Fill-23" fill="#FFFFFF" mask="url(#mask-2)" points="29.3441 75.1953 27.5901 75.1953 27.5901 71.8863 29.2701 71.8863 29.2701 72.2373 27.9781 72.2373 27.9781 73.3393 29.1731 73.3393 29.1731 73.6863 27.9781 73.6863 27.9781 74.8443 29.3441 74.8443"></polygon>
                    <path d="M30.3685,72.2373 L30.3685,73.4373 L30.8945,73.4373 C30.9915,73.4373 31.0815,73.4243 31.1635,73.3933 C31.2455,73.3643 31.3165,73.3233 31.3765,73.2673 C31.4365,73.2143 31.4835,73.1463 31.5175,73.0673 C31.5515,72.9873 31.5685,72.8993 31.5685,72.8003 C31.5685,72.6253 31.5115,72.4853 31.3965,72.3863 C31.2815,72.2883 31.1155,72.2373 30.8985,72.2373 L30.3685,72.2373 Z M32.3525,75.1953 L31.8905,75.1953 L31.3375,74.2673 C31.2865,74.1813 31.2375,74.1083 31.1895,74.0493 C31.1415,73.9863 31.0935,73.9373 31.0435,73.8983 C30.9935,73.8603 30.9395,73.8333 30.8825,73.8143 C30.8245,73.7983 30.7595,73.7893 30.6865,73.7893 L30.3685,73.7893 L30.3685,75.1953 L29.9805,75.1953 L29.9805,71.8863 L30.9685,71.8863 C31.1125,71.8863 31.2465,71.9053 31.3685,71.9413 C31.4905,71.9773 31.5975,72.0333 31.6865,72.1063 C31.7765,72.1793 31.8475,72.2713 31.8975,72.3833 C31.9485,72.4933 31.9735,72.6213 31.9735,72.7683 C31.9735,72.8833 31.9575,72.9893 31.9225,73.0863 C31.8885,73.1813 31.8385,73.2673 31.7745,73.3423 C31.7115,73.4193 31.6345,73.4823 31.5445,73.5363 C31.4545,73.5903 31.3525,73.6313 31.2405,73.6603 L31.2405,73.6693 C31.2965,73.6923 31.3445,73.7203 31.3855,73.7533 C31.4255,73.7853 31.4645,73.8213 31.5015,73.8643 C31.5385,73.9083 31.5745,73.9573 31.6105,74.0103 C31.6465,74.0653 31.6875,74.1303 31.7315,74.2023 L32.3525,75.1953 Z" id="Fill-24" fill="#FFFFFF" mask="url(#mask-2)"></path>
                    <path d="M35.0433,72.2373 L35.0433,74.8443 L35.5373,74.8443 C35.9713,74.8443 36.3083,74.7283 36.5503,74.4973 C36.7913,74.2633 36.9123,73.9343 36.9123,73.5083 C36.9123,72.6623 36.4613,72.2373 35.5603,72.2373 L35.0433,72.2373 Z M34.6553,75.1953 L34.6553,71.8863 L35.5693,71.8863 C36.7353,71.8863 37.3173,72.4243 37.3173,73.5013 C37.3173,74.0093 37.1563,74.4223 36.8323,74.7303 C36.5093,75.0413 36.0753,75.1953 35.5323,75.1953 L34.6553,75.1953 Z" id="Fill-25" fill="#FFFFFF" mask="url(#mask-2)"></path>
                    <polygon id="Fill-26" fill="#FFFFFF" mask="url(#mask-2)" points="39.723 75.1953 37.969 75.1953 37.969 71.8863 39.649 71.8863 39.649 72.2373 38.357 72.2373 38.357 73.3393 39.552 73.3393 39.552 73.6863 38.357 73.6863 38.357 74.8443 39.723 74.8443"></polygon>
                    <path d="M40.746,72.2373 L40.746,73.4373 L41.272,73.4373 C41.369,73.4373 41.459,73.4243 41.541,73.3933 C41.623,73.3643 41.694,73.3233 41.754,73.2673 C41.814,73.2143 41.861,73.1463 41.895,73.0673 C41.929,72.9873 41.946,72.8993 41.946,72.8003 C41.946,72.6253 41.889,72.4853 41.774,72.3863 C41.659,72.2883 41.493,72.2373 41.276,72.2373 L40.746,72.2373 Z M42.73,75.1953 L42.268,75.1953 L41.715,74.2673 C41.664,74.1813 41.615,74.1083 41.567,74.0493 C41.519,73.9863 41.471,73.9373 41.421,73.8983 C41.371,73.8603 41.317,73.8333 41.26,73.8143 C41.202,73.7983 41.137,73.7893 41.064,73.7893 L40.746,73.7893 L40.746,75.1953 L40.358,75.1953 L40.358,71.8863 L41.346,71.8863 C41.49,71.8863 41.624,71.9053 41.746,71.9413 C41.868,71.9773 41.975,72.0333 42.064,72.1063 C42.154,72.1793 42.225,72.2713 42.275,72.3833 C42.326,72.4933 42.351,72.6213 42.351,72.7683 C42.351,72.8833 42.335,72.9893 42.3,73.0863 C42.266,73.1813 42.216,73.2673 42.152,73.3423 C42.089,73.4193 42.012,73.4823 41.922,73.5363 C41.832,73.5903 41.73,73.6313 41.618,73.6603 L41.618,73.6693 C41.674,73.6923 41.722,73.7203 41.763,73.7533 C41.803,73.7853 41.842,73.8213 41.879,73.8643 C41.916,73.9083 41.952,73.9573 41.988,74.0103 C42.024,74.0653 42.065,74.1303 42.109,74.2023 L42.73,75.1953 Z" id="Fill-27" fill="#FFFFFF" mask="url(#mask-2)"></path>
                    <polygon id="Fill-28" fill="#FFFFFF" mask="url(#mask-2)" points="48.306 70.6006 45.536 74.6956 48.24 74.6956 48.24 75.1966 44.709 75.1966 44.709 75.0396 47.455 70.9696 44.931 70.9696 44.931 70.4686 48.306 70.4686"></polygon>
                    <path d="M51.3041,73.8584 C51.3041,74.7874 50.8851,75.2524 50.0471,75.2524 C49.2441,75.2524 48.8431,74.8034 48.8431,73.9114 L48.8431,71.8864 L49.2311,71.8864 L49.2311,73.8844 C49.2311,74.5634 49.5161,74.9034 50.0881,74.9034 C50.6411,74.9034 50.9171,74.5754 50.9171,73.9204 L50.9171,71.8864 L51.3041,71.8864 L51.3041,73.8584 Z" id="Fill-29" fill="#FFFFFF" mask="url(#mask-2)"></path>
                    <path d="M54.433,75.1953 L53.893,75.1953 L52.615,73.6813 C52.567,73.6263 52.538,73.5883 52.527,73.5663 L52.518,73.5663 L52.518,75.1953 L52.13,75.1953 L52.13,71.8863 L52.518,71.8863 L52.518,73.4413 L52.527,73.4413 C52.549,73.4093 52.578,73.3713 52.615,73.3303 L53.852,71.8863 L54.333,71.8863 L52.914,73.4743 L54.433,75.1953 Z" id="Fill-30" fill="#FFFFFF" mask="url(#mask-2)"></path>
                    <path d="M57.2904,73.8584 C57.2904,74.7874 56.8714,75.2524 56.0334,75.2524 C55.2304,75.2524 54.8294,74.8034 54.8294,73.9114 L54.8294,71.8864 L55.2174,71.8864 L55.2174,73.8844 C55.2174,74.5634 55.5024,74.9034 56.0744,74.9034 C56.6274,74.9034 56.9034,74.5754 56.9034,73.9204 L56.9034,71.8864 L57.2904,71.8864 L57.2904,73.8584 Z" id="Fill-31" fill="#FFFFFF" mask="url(#mask-2)"></path>
                    <path d="M60.7836,75.1953 L60.3086,75.1953 L58.6056,72.5583 C58.5626,72.4933 58.5276,72.4243 58.4996,72.3503 L58.4856,72.3503 C58.4986,72.4223 58.5046,72.5733 58.5046,72.8043 L58.5046,75.1953 L58.1166,75.1953 L58.1166,71.8863 L58.6196,71.8863 L60.2756,74.4823 C60.3456,74.5913 60.3896,74.6653 60.4096,74.7053 L60.4196,74.7053 C60.4036,74.6083 60.3956,74.4463 60.3956,74.2163 L60.3956,71.8863 L60.7836,71.8863 L60.7836,75.1953 Z" id="Fill-32" fill="#FFFFFF" mask="url(#mask-2)"></path>
                    <polygon id="Fill-33" fill="#FFFFFF" mask="url(#mask-2)" points="63.3314 72.2373 62.0394 72.2373 62.0394 73.3833 63.2344 73.3833 63.2344 73.7303 62.0394 73.7303 62.0394 75.1953 61.6514 75.1953 61.6514 71.8863 63.3314 71.8863"></polygon>
                    <polygon id="Fill-34" fill="#FFFFFF" mask="url(#mask-2)" points="65.9476 72.2373 64.9916 72.2373 64.9916 75.1953 64.6046 75.1953 64.6046 72.2373 63.6516 72.2373 63.6516 71.8863 65.9476 71.8863"></polygon>
                    <path d="M70.7753,71.8877 L69.5493,75.1967 L69.1233,75.1967 L67.9233,71.8877 L68.3543,71.8877 L69.2703,74.5097 C69.2993,74.5947 69.3223,74.6937 69.3383,74.8037 L69.3463,74.8037 C69.3593,74.7107 69.3843,74.6127 69.4223,74.5057 L70.3573,71.8877 L70.7753,71.8877 Z" id="Fill-35" fill="#FFFFFF" mask="url(#mask-2)"></path>
                    <path d="M72.5834,72.1826 C72.2354,72.1826 71.9534,72.3076 71.7364,72.5596 C71.5204,72.8096 71.4114,73.1376 71.4114,73.5456 C71.4114,73.9536 71.5174,74.2826 71.7294,74.5306 C71.9394,74.7796 72.2164,74.9036 72.5564,74.9036 C72.9184,74.9036 73.2044,74.7856 73.4144,74.5466 C73.6234,74.3116 73.7284,73.9796 73.7284,73.5526 C73.7284,73.1176 73.6264,72.7796 73.4234,72.5396 C73.2204,72.3016 72.9394,72.1826 72.5834,72.1826 M72.5564,75.2506 C72.0864,75.2506 71.7114,75.0956 71.4294,74.7866 C71.1464,74.4786 71.0054,74.0766 71.0054,73.5796 C71.0054,73.0476 71.1484,72.6236 71.4374,72.3076 C71.7244,71.9916 72.1154,71.8306 72.6104,71.8306 C73.0674,71.8306 73.4364,71.9866 73.7154,72.2926 C73.9944,72.6016 74.1344,73.0026 74.1344,73.4996 C74.1344,74.0386 73.9904,74.4656 73.7044,74.7816 C73.4184,75.0936 73.0354,75.2506 72.5564,75.2506" id="Fill-36" fill="#FFFFFF" mask="url(#mask-2)"></path>
                    <path d="M77.4515,75.1953 L76.9765,75.1953 L75.2735,72.5583 C75.2305,72.4933 75.1955,72.4243 75.1675,72.3503 L75.1535,72.3503 C75.1665,72.4223 75.1725,72.5733 75.1725,72.8043 L75.1725,75.1953 L74.7845,75.1953 L74.7845,71.8863 L75.2875,71.8863 L76.9435,74.4823 C77.0135,74.5913 77.0575,74.6653 77.0775,74.7053 L77.0875,74.7053 C77.0715,74.6083 77.0635,74.4463 77.0635,74.2163 L77.0635,71.8863 L77.4515,71.8863 L77.4515,75.1953 Z" id="Fill-37" fill="#FFFFFF" mask="url(#mask-2)"></path>
                    <polygon id="Fill-38" fill="#FFFFFF" mask="url(#mask-2)" points="83.9076 75.1953 83.3536 75.1953 83.3536 73.0413 80.9086 73.0413 80.9086 75.1953 80.3536 75.1953 80.3536 70.4683 80.9086 70.4683 80.9086 72.5433 83.3536 72.5433 83.3536 70.4683 83.9076 70.4683"></polygon>
                    <path d="M85.7001,70.9697 L85.7001,72.6847 L86.4511,72.6847 C86.5901,72.6847 86.7181,72.6627 86.8351,72.6207 C86.9531,72.5787 87.0541,72.5207 87.1391,72.4427 C87.2251,72.3647 87.2931,72.2687 87.3411,72.1567 C87.3891,72.0417 87.4131,71.9147 87.4131,71.7757 C87.4131,71.5227 87.3321,71.3237 87.1681,71.1837 C87.0041,71.0407 86.7671,70.9697 86.4581,70.9697 L85.7001,70.9697 Z M88.5341,75.1967 L87.8751,75.1967 L87.0841,73.8697 C87.0121,73.7467 86.9411,73.6437 86.8731,73.5567 C86.8041,73.4697 86.7351,73.3997 86.6641,73.3427 C86.5931,73.2877 86.5151,73.2477 86.4321,73.2237 C86.3501,73.1987 86.2581,73.1857 86.1541,73.1857 L85.7001,73.1857 L85.7001,75.1967 L85.1451,75.1967 L85.1451,70.4697 L86.5561,70.4697 C86.7621,70.4697 86.9541,70.4947 87.1291,70.5467 C87.3031,70.5987 87.4551,70.6767 87.5831,70.7827 C87.7121,70.8887 87.8121,71.0197 87.8851,71.1757 C87.9571,71.3327 87.9931,71.5187 87.9931,71.7297 C87.9931,71.8937 87.9691,72.0437 87.9201,72.1827 C87.8701,72.3197 87.8001,72.4427 87.7091,72.5487 C87.6171,72.6567 87.5081,72.7477 87.3791,72.8237 C87.2501,72.9007 87.1051,72.9587 86.9451,72.9997 L86.9451,73.0147 C87.0241,73.0487 87.0941,73.0887 87.1511,73.1337 C87.2101,73.1797 87.2651,73.2337 87.3181,73.2937 C87.3711,73.3567 87.4231,73.4247 87.4741,73.5027 C87.5261,73.5807 87.5841,73.6717 87.6471,73.7757 L88.5341,75.1967 Z" id="Fill-39" fill="#FFFFFF" mask="url(#mask-2)"></path>
                </g>
            </g>
        </g>
    </g>
</svg>