<svg height='100px' width='100px'  fill="#8aa399" xmlns="http://www.w3.org/2000/svg" xmlns:xlink="http://www.w3.org/1999/xlink" version="1.1" x="0px" y="0px" viewBox="0 0 100 100" enable-background="new 0 0 100 100" xml:space="preserve"><g><g><g><path d="M19.561,59.615c-0.768,0-1.422-0.586-1.492-1.366c-0.074-0.825,0.535-1.554,1.36-1.628l47.21-4.234     c0.818-0.077,1.554,0.535,1.628,1.36c0.074,0.825-0.535,1.554-1.36,1.628l-47.21,4.234     C19.651,59.613,19.605,59.615,19.561,59.615z"></path></g><g><path d="M29.31,46.125c-0.768,0-1.422-0.586-1.492-1.366c-0.074-0.825,0.535-1.554,1.36-1.628l46.402-4.161     c0.813-0.075,1.554,0.535,1.628,1.36c0.074,0.825-0.535,1.554-1.36,1.628l-46.402,4.161C29.4,46.123,29.355,46.125,29.31,46.125z     "></path></g><g><path d="M14.753,89.848c-0.396,0-0.778-0.156-1.061-0.439L7.975,83.69c-0.328-0.327-0.485-0.788-0.428-1.247     c1.282-10.247,11.099-29.464,27.38-46.369C55.471,16.286,81.186,9.31,85.906,9.31c0.502,0,1.141,0.062,1.622,0.543     c0.455,0.455,1.078,1.078-0.318,6.668c-0.92,3.686-2.412,8.088-4.2,12.397c-3.659,8.82-10.388,21.791-21.663,33.496     C44.403,78.737,25.186,88.554,14.939,89.836C14.877,89.844,14.815,89.848,14.753,89.848z M10.627,82.1l4.657,4.657     c9.724-1.568,28.084-11.188,43.943-26.463C77.414,41.412,84.319,17.987,85.019,12.38c-5.896,0.757-29.253,7.787-47.971,25.816     C21.812,54.017,12.194,72.376,10.627,82.1z"></path></g><g><path d="M18.297,80.586c-0.384,0-0.768-0.146-1.061-0.439c-0.586-0.585-0.586-1.536,0-2.121l6.476-6.476     c0.586-0.586,1.535-0.586,2.121,0c0.586,0.585,0.586,1.536,0,2.121l-6.476,6.476C19.065,80.439,18.681,80.586,18.297,80.586z"></path></g></g></g></svg>