<svg height='100px' width='100px'  fill="#8aa399" xmlns:x="http://ns.adobe.com/Extensibility/1.0/" xmlns:i="http://ns.adobe.com/AdobeIllustrator/10.0/" xmlns:graph="http://ns.adobe.com/Graphs/1.0/" xmlns="http://www.w3.org/2000/svg" xmlns:xlink="http://www.w3.org/1999/xlink" version="1.1" x="0px" y="0px" viewBox="0 0 100 100" style="enable-background:new 0 0 100 100;" xml:space="preserve"><g><g i:extraneous="self"><path d="M84.4,4.3c-0.7-2.2-3.7-2.5-4.9-0.5C70.2,20.8,49.9,26,52.5,40.4c0.6,3.1,2.4,5.7,5,7.7c4.5-8,10-13.3,13.4-16.2    L45.6,84.2L18.2,27.7c-1-2-3.4-2.8-5.4-1.9c-2,1-2.8,3.4-1.9,5.4l31,64c0.7,1.4,2.1,2.3,3.6,2.3s3-0.9,3.6-2.3l20.7-42.6    c6,0.5,12.1-1.1,15.7-5.3C92.8,38.7,88.6,16.7,84.4,4.3z"></path></g></g></svg>